<svg width="38" height="31" viewBox="0 0 38 31" fill="none" xmlns="http://www.w3.org/2000/svg">
<path d="M2 0.10944C1.60218 0.10944 1.22064 0.270768 0.93934 0.557933C0.658035 0.845098 0.5 1.23458 0.5 1.64069C0.5 2.0468 0.658035 2.43628 0.93934 2.72345C1.22064 3.01061 1.60218 3.17194 2 3.17194H5.33L9.266 19.2501C9.6005 20.6129 10.796 21.5469 12.1715 21.5469H30.8765C32.231 21.5469 33.3815 20.6282 33.737 19.296L37.625 4.70319H34.484L30.875 18.4844H12.17L8.2355 2.40631C8.07297 1.7467 7.69831 1.16183 7.17152 0.745389C6.64472 0.328943 5.99627 0.105006 5.33 0.10944H2ZM29 21.5469C26.5325 21.5469 24.5 23.6218 24.5 26.1407C24.5 28.6596 26.5325 30.7344 29 30.7344C31.4675 30.7344 33.5 28.6596 33.5 26.1407C33.5 23.6218 31.4675 21.5469 29 21.5469ZM15.5 21.5469C13.0325 21.5469 11 23.6218 11 26.1407C11 28.6596 13.0325 30.7344 15.5 30.7344C17.9675 30.7344 20 28.6596 20 26.1407C20 23.6218 17.9675 21.5469 15.5 21.5469ZM20 0.10944V7.76569H15.5L21.5 13.8907L27.5 7.76569H23V0.10944H20ZM15.5 24.6094C16.346 24.6094 17 25.2771 17 26.1407C17 27.0043 16.346 27.6719 15.5 27.6719C14.654 27.6719 14 27.0043 14 26.1407C14 25.2771 14.654 24.6094 15.5 24.6094ZM29 24.6094C29.846 24.6094 30.5 25.2771 30.5 26.1407C30.5 27.0043 29.846 27.6719 29 27.6719C28.154 27.6719 27.5 27.0043 27.5 26.1407C27.5 25.2771 28.154 24.6094 29 24.6094Z" fill="white"/>
</svg>
