<svg width="50" height="62" viewBox="0 0 50 62" fill="none" xmlns="http://www.w3.org/2000/svg">
<path d="M15.1079 25.2143C15.1079 24.3848 14.4292 23.7061 13.5997 23.7061H1.50828C0.678726 23.7061 0 24.3848 0 25.2143C0 26.0439 0.678726 26.7226 1.50828 26.7226H13.5997C14.4292 26.7226 15.1079 26.0439 15.1079 25.2143Z" fill="white"/>
<path d="M48.1392 23.7061H36.0478C35.2183 23.7061 34.5396 24.3848 34.5396 25.2143C34.5396 26.0439 35.2183 26.7226 36.0478 26.7226H48.1392C48.9688 26.7226 49.6475 26.0439 49.6475 25.2143C49.6475 24.3848 48.9813 23.7061 48.1392 23.7061Z" fill="white"/>
<path d="M24.8237 15.4986C25.6533 15.4986 26.332 14.8198 26.332 13.9903V1.89891C26.332 1.06935 25.6533 0.390625 24.8237 0.390625C23.9942 0.390625 23.3154 1.06935 23.3154 1.89891V13.9903C23.3154 14.8198 23.9942 15.4986 24.8237 15.4986Z" fill="white"/>
<path d="M32.7551 18.7918C33.1447 18.7918 33.5218 18.641 33.8234 18.3519L42.3829 9.79244C42.9737 9.20169 42.9737 8.24645 42.3829 7.6557C41.7922 7.06496 40.837 7.06496 40.2462 7.6557L31.6867 16.2152C31.096 16.8059 31.096 17.7612 31.6867 18.3519C31.9884 18.641 32.378 18.7918 32.7551 18.7918Z" fill="white"/>
<path d="M15.8243 18.3519C16.1134 18.641 16.5031 18.7918 16.8927 18.7918C17.2823 18.7918 17.6594 18.641 17.9611 18.3519C18.5518 17.7612 18.5518 16.8059 17.9611 16.2152L9.40157 7.6557C8.81082 7.06496 7.85558 7.06496 7.26484 7.6557C6.67409 8.24645 6.67409 9.20169 7.26484 9.79244L15.8243 18.3519Z" fill="white"/>
<path d="M42.9482 34.7292C41.8044 33.7489 40.3589 33.2084 38.8884 33.2084H37.5183H32.5913H30.2535V27.1124C30.2535 24.1964 29.3862 22.0722 27.6642 20.8028C24.9493 18.8169 21.2666 19.9355 21.1032 19.9858C20.4748 20.1869 20.0474 20.7651 20.0474 21.4187V28.7715C20.0474 31.0088 18.9791 32.9067 16.8549 34.4276C15.2461 35.5839 13.5995 36.1118 13.3858 36.1747L13.235 36.2124C12.6694 35.5714 11.8399 35.1692 10.9097 35.1692H5.17828C3.46889 35.1692 2.07373 36.5643 2.07373 38.2737V57.0769C2.07373 58.7863 3.46889 60.1815 5.17828 60.1815H10.9349C11.689 60.1815 12.3929 59.905 12.9208 59.4525C14.0771 60.5837 15.6483 61.275 17.3451 61.275H23.064H23.6547H35.3565C37.1664 61.275 38.7627 60.8351 39.9819 60.0181C41.5404 58.9623 42.5082 57.2906 42.7848 55.1539L45.11 40.6995C45.4745 38.4622 44.645 36.1747 42.9482 34.7292ZM11.0229 57.0769C11.0229 57.1272 10.9852 57.1649 10.9349 57.1649H5.17828C5.128 57.1649 5.09029 57.1272 5.09029 57.0769V38.2737C5.09029 38.2234 5.128 38.1857 5.17828 38.1857H10.9349C10.9852 38.1857 11.0229 38.2234 11.0229 38.2737V57.0769ZM42.1312 40.2345L39.8059 54.714C39.8059 54.7265 39.8059 54.7517 39.7933 54.7768C39.6928 55.6441 39.366 58.271 35.3565 58.271H23.6547H23.064H17.3451C15.7362 58.271 14.3285 57.0644 14.0771 55.4681C14.0646 55.4053 14.052 55.3424 14.0394 55.2921V39.1284L14.1274 39.1033C14.1526 39.1033 14.1651 39.0907 14.1903 39.0907C14.2782 39.0655 16.415 38.4622 18.5391 36.9414C21.4929 34.8424 23.064 32.0143 23.064 28.7715V22.663C23.8935 22.575 25.0373 22.6127 25.8794 23.2286C26.7844 23.8947 27.2369 25.2019 27.2369 27.0998V34.7041C27.2369 35.5337 27.9156 36.2124 28.7452 36.2124H32.5913H37.5183H38.8884C39.6425 36.2124 40.3841 36.5015 40.9874 37.0042C41.8924 37.7835 42.3197 39.0153 42.1312 40.2345Z" fill="white"/>
</svg>
