<svg width="47" height="48" viewBox="0 0 47 48" fill="none" xmlns="http://www.w3.org/2000/svg">
<path d="M35.6534 12.1406H43.3822C43.8497 12.141 44.3003 12.2958 44.6468 12.5749C44.9934 12.854 45.2111 13.2376 45.2578 13.6513L46.4089 23.8906H42.6124L41.6689 15.4978H35.6534V20.5335C35.6534 20.9787 35.4546 21.4056 35.1007 21.7204C34.7469 22.0352 34.2669 22.2121 33.7665 22.2121C33.266 22.2121 32.7861 22.0352 32.4322 21.7204C32.0784 21.4056 31.8796 20.9787 31.8796 20.5335V15.4978H16.7842V20.5335C16.7842 20.9787 16.5854 21.4056 16.2315 21.7204C15.8777 22.0352 15.3977 22.2121 14.8973 22.2121C14.3968 22.2121 13.9169 22.0352 13.563 21.7204C13.2091 21.4056 13.0103 20.9787 13.0103 20.5335V15.4978H6.99107L3.97199 42.3549H24.3319V45.7121H1.88506C1.62151 45.7118 1.36093 45.6625 1.12013 45.5672C0.879319 45.4719 0.663617 45.3328 0.486918 45.1589C0.31022 44.9849 0.176444 44.78 0.0942086 44.5572C0.0119736 44.3345 -0.0168967 44.0989 0.00945853 43.8656L3.40592 13.6513C3.45266 13.2376 3.67039 12.854 4.0169 12.5749C4.36342 12.2958 4.81406 12.141 5.28152 12.1406H13.0103V10.969C13.0103 5.1477 18.0522 0.390625 24.3319 0.390625C30.6115 0.390625 35.6534 5.1477 35.6534 10.969V12.144V12.1406ZM31.8796 12.1406V10.969C31.8796 6.96055 28.4756 3.74777 24.3319 3.74777C20.1882 3.74777 16.7842 6.96055 16.7842 10.969V12.144H31.8796V12.1406ZM43.7558 37.5206L39.4272 33.6733V45.7121C39.4272 46.1572 39.2284 46.5842 38.8746 46.899C38.5207 47.2138 38.0408 47.3906 37.5403 47.3906C37.0399 47.3906 36.5599 47.2138 36.2061 46.899C35.8522 46.5842 35.6534 46.1572 35.6534 45.7121V33.6733L31.3286 37.5206C31.1545 37.6809 30.9463 37.8088 30.7161 37.8968C30.4859 37.9848 30.2383 38.0311 29.9877 38.033C29.7372 38.0349 29.4887 37.9925 29.2568 37.9081C29.0249 37.8237 28.8142 37.699 28.6371 37.5414C28.4599 37.3838 28.3198 37.1964 28.2249 36.9901C28.1301 36.7838 28.0823 36.5628 28.0845 36.3399C28.0867 36.117 28.1387 35.8968 28.2376 35.692C28.3365 35.4872 28.4803 35.302 28.6605 35.1471L36.2082 28.4328C36.562 28.1182 37.0419 27.9414 37.5422 27.9414C38.0425 27.9414 38.5224 28.1182 38.8763 28.4328L46.4239 35.1471C46.6042 35.302 46.7479 35.4872 46.8468 35.692C46.9457 35.8968 46.9977 36.117 46.9999 36.3399C47.0021 36.5628 46.9544 36.7838 46.8595 36.9901C46.7646 37.1964 46.6245 37.3838 46.4473 37.5414C46.2702 37.699 46.0595 37.8237 45.8276 37.9081C45.5957 37.9925 45.3472 38.0349 45.0967 38.033C44.8461 38.0311 44.5985 37.9848 44.3683 37.8968C44.1381 37.8088 43.9299 37.6809 43.7558 37.5206Z" fill="white"/>
</svg>
